<svg version="1.1" xmlns="http://www.w3.org/2000/svg" viewBox="0 0 1233.6000366210938 994.4000244140625" width="1233.6000366210938" height="994.4000244140625">
  <!-- svg-source:excalidraw -->
  
  <defs>
    <style class="style-fonts">
      @font-face {
        font-family: "Virgil";
        src: url("https://excalidraw.com/Virgil.woff2");
      }
      @font-face {
        font-family: "Cascadia";
        src: url("https://excalidraw.com/Cascadia.woff2");
      }
      @font-face {
        font-family: "Assistant";
        src: url("https://excalidraw.com/Assistant-Regular.woff2");
      }
    </style>
    <clipPath id="gnM5-5ycZO9aeW1gxfxWL">
            <rect transform="translate(0 0) rotate(0 616.8000183105469 497.20001220703125)" width="1233.6000366210938" height="994.4000244140625">
          </rect>
        </clipPath>
  </defs>
  <g clip-path="url(#gnM5-5ycZO9aeW1gxfxWL)"><g stroke-opacity="0.8" fill-opacity="0.8" transform="translate(920.0000610351562 252.79998779296875) rotate(0 0.00004999999998744897 0.00005000000000165983)" stroke="none"><path fill="#1e1e1e" d="M 1.57,-1.57 Q 1.57,-1.57 1.77,-1.27 1.98,-0.98 2.09,-0.64 2.20,-0.29 2.19,0.05 2.18,0.41 2.05,0.75 1.93,1.09 1.70,1.37 1.48,1.65 1.18,1.84 0.87,2.04 0.52,2.12 0.18,2.21 -0.17,2.18 -0.53,2.15 -0.86,2.01 -1.19,1.87 -1.46,1.63 -1.73,1.39 -1.90,1.07 -2.08,0.76 -2.15,0.41 -2.21,0.05 -2.17,-0.29 -2.12,-0.65 -1.96,-0.97 -1.80,-1.29 -1.54,-1.54 -1.29,-1.80 -0.97,-1.96 -0.65,-2.12 -0.29,-2.17 0.06,-2.21 0.41,-2.15 0.76,-2.08 1.07,-1.90 1.39,-1.73 1.63,-1.46 1.87,-1.19 2.01,-0.86 2.15,-0.53 2.18,-0.17 2.21,0.18 2.12,0.52 2.03,0.87 1.84,1.18 1.65,1.48 1.37,1.70 1.09,1.93 0.75,2.05 0.41,2.18 0.05,2.19 -0.30,2.20 -0.64,2.09 -0.98,1.98 -1.27,1.77 -1.57,1.56 -1.57,1.57 -1.57,1.57 -1.73,1.35 -1.90,1.14 -2.01,0.90 -2.12,0.66 -2.16,0.39 -2.21,0.13 -2.20,-0.13 -2.18,-0.40 -2.10,-0.65 -2.02,-0.91 -1.88,-1.14 -1.74,-1.36 -1.55,-1.55 -1.36,-1.74 -1.14,-1.88 -0.91,-2.02 -0.65,-2.10 -0.40,-2.18 -0.13,-2.20 0.13,-2.21 0.39,-2.16 0.66,-2.12 0.90,-2.01 1.14,-1.90 1.35,-1.73 1.57,-1.57 1.57,-1.57 L 1.57,-1.57 Z"></path></g></g><g clip-path="url(#gnM5-5ycZO9aeW1gxfxWL)"><g stroke-linecap="round"><g stroke-opacity="0.8" fill-opacity="0.8" transform="translate(582.5229466213605 313.34550905622547) rotate(269.97732772573056 5.684341886080802e-14 173.59483268320204)"><path d="M0 0 C47.73 29.24, 99.06 56.35, 150.34 86.8 M0 0 C32.27 19.75, 64 37.82, 150.34 86.8 M150.34 86.8 C151.1 128.4, 151.2 172.14, 150.34 260.39 M150.34 86.8 C150.54 138.42, 150.83 189.63, 150.34 260.39 M150.34 260.39 C112.23 283.54, 76.17 302.8, 0 347.19 M150.34 260.39 C102.83 287.65, 56.96 314.58, 0 347.19 M0 347.19 C-42.24 319.37, -85.98 293.79, -150.34 260.39 M0 347.19 C-56.53 314.12, -115.22 281.55, -150.34 260.39 M-150.34 260.39 C-149.33 201.79, -149.85 147.19, -150.34 86.8 M-150.34 260.39 C-150.18 215.06, -150.69 170.18, -150.34 86.8 M-150.34 86.8 C-92.95 52.44, -33.59 21.51, 0 0 M-150.34 86.8 C-119.96 68.26, -88.1 50.04, 0 0" stroke="#000000" stroke-width="1" fill="none"></path></g></g><mask></mask></g><g clip-path="url(#gnM5-5ycZO9aeW1gxfxWL)"><g stroke-opacity="0.8" fill-opacity="0.8" transform="translate(465.7065896386739 444.9626137646117) rotate(0 120.64088439941406 43)"><text x="120.64088439941406" y="0" font-family="Virgil, Segoe UI Emoji" font-size="33.533171673474094px" fill="#000000" text-anchor="middle" style="white-space: pre;" direction="ltr" dominant-baseline="text-before-edge">Port</text><text x="120.64088439941406" y="43" font-family="Virgil, Segoe UI Emoji" font-size="33.533171673474094px" fill="#000000" text-anchor="middle" style="white-space: pre;" direction="ltr" dominant-baseline="text-before-edge">Domain Service</text></g></g><g clip-path="url(#gnM5-5ycZO9aeW1gxfxWL)"><g stroke-opacity="0.8" fill-opacity="0.8" stroke-linecap="round" transform="translate(580.1530964768426 335.19189235417144) rotate(0 0.7125000000008299 0.7125000000008583)"><path d="M1.43 0.71 C1.43 0.75, 1.42 0.8, 1.41 0.84 C1.41 0.88, 1.4 0.92, 1.38 0.96 C1.37 0.99, 1.35 1.03, 1.33 1.07 C1.31 1.1, 1.28 1.14, 1.26 1.17 C1.23 1.2, 1.2 1.23, 1.17 1.26 C1.14 1.28, 1.1 1.31, 1.07 1.33 C1.03 1.35, 0.99 1.37, 0.96 1.38 C0.92 1.4, 0.88 1.41, 0.84 1.41 C0.8 1.42, 0.75 1.43, 0.71 1.43 C0.67 1.43, 0.63 1.42, 0.59 1.41 C0.55 1.41, 0.51 1.4, 0.47 1.38 C0.43 1.37, 0.39 1.35, 0.36 1.33 C0.32 1.31, 0.29 1.28, 0.25 1.26 C0.22 1.23, 0.19 1.2, 0.17 1.17 C0.14 1.14, 0.12 1.1, 0.1 1.07 C0.07 1.03, 0.06 0.99, 0.04 0.96 C0.03 0.92, 0.02 0.88, 0.01 0.84 C0 0.8, 0 0.75, 0 0.71 C0 0.67, 0 0.63, 0.01 0.59 C0.02 0.55, 0.03 0.51, 0.04 0.47 C0.06 0.43, 0.07 0.39, 0.1 0.36 C0.12 0.32, 0.14 0.29, 0.17 0.25 C0.19 0.22, 0.22 0.19, 0.25 0.17 C0.29 0.14, 0.32 0.12, 0.36 0.1 C0.39 0.07, 0.43 0.06, 0.47 0.04 C0.51 0.03, 0.55 0.02, 0.59 0.01 C0.63 0, 0.67 0, 0.71 0 C0.75 0, 0.8 0, 0.84 0.01 C0.88 0.02, 0.92 0.03, 0.96 0.04 C0.99 0.06, 1.03 0.07, 1.07 0.1 C1.1 0.12, 1.14 0.14, 1.17 0.17 C1.2 0.19, 1.23 0.22, 1.26 0.25 C1.28 0.29, 1.31 0.32, 1.33 0.36 C1.35 0.39, 1.37 0.43, 1.38 0.47 C1.4 0.51, 1.41 0.55, 1.41 0.59 C1.42 0.63, 1.42 0.69, 1.43 0.71 C1.43 0.73, 1.43 0.69, 1.43 0.71" stroke="none" stroke-width="0" fill="#000"></path><path d="M1.43 0.71 C1.43 0.75, 1.42 0.8, 1.41 0.84 C1.41 0.88, 1.4 0.92, 1.38 0.96 C1.37 0.99, 1.35 1.03, 1.33 1.07 C1.31 1.1, 1.28 1.14, 1.26 1.17 C1.23 1.2, 1.2 1.23, 1.17 1.26 C1.14 1.28, 1.1 1.31, 1.07 1.33 C1.03 1.35, 0.99 1.37, 0.96 1.38 C0.92 1.4, 0.88 1.41, 0.84 1.41 C0.8 1.42, 0.75 1.43, 0.71 1.43 C0.67 1.43, 0.63 1.42, 0.59 1.41 C0.55 1.41, 0.51 1.4, 0.47 1.38 C0.43 1.37, 0.39 1.35, 0.36 1.33 C0.32 1.31, 0.29 1.28, 0.25 1.26 C0.22 1.23, 0.19 1.2, 0.17 1.17 C0.14 1.14, 0.12 1.1, 0.1 1.07 C0.07 1.03, 0.06 0.99, 0.04 0.96 C0.03 0.92, 0.02 0.88, 0.01 0.84 C0 0.8, 0 0.75, 0 0.71 C0 0.67, 0 0.63, 0.01 0.59 C0.02 0.55, 0.03 0.51, 0.04 0.47 C0.06 0.43, 0.07 0.39, 0.1 0.36 C0.12 0.32, 0.14 0.29, 0.17 0.25 C0.19 0.22, 0.22 0.19, 0.25 0.17 C0.29 0.14, 0.32 0.12, 0.36 0.1 C0.39 0.07, 0.43 0.06, 0.47 0.04 C0.51 0.03, 0.55 0.02, 0.59 0.01 C0.63 0, 0.67 0, 0.71 0 C0.75 0, 0.8 0, 0.84 0.01 C0.88 0.02, 0.92 0.03, 0.96 0.04 C0.99 0.06, 1.03 0.07, 1.07 0.1 C1.1 0.12, 1.14 0.14, 1.17 0.17 C1.2 0.19, 1.23 0.22, 1.26 0.25 C1.28 0.29, 1.31 0.32, 1.33 0.36 C1.35 0.39, 1.37 0.43, 1.38 0.47 C1.4 0.51, 1.41 0.55, 1.41 0.59 C1.42 0.63, 1.42 0.69, 1.43 0.71 C1.43 0.73, 1.43 0.69, 1.43 0.71" stroke="#000" stroke-width="1.5" fill="none" stroke-dasharray="8 9"></path></g></g><g clip-path="url(#gnM5-5ycZO9aeW1gxfxWL)"><g stroke-opacity="0.8" fill-opacity="0.8" stroke-linecap="round" transform="translate(579.5349513155543 636.0862751581974) rotate(0 1.330645161290704 1.330645161290704)"><path d="M2.66 1.33 C2.66 1.41, 2.65 1.49, 2.64 1.56 C2.63 1.64, 2.61 1.71, 2.58 1.79 C2.55 1.86, 2.52 1.93, 2.48 2 C2.44 2.06, 2.4 2.13, 2.35 2.19 C2.3 2.24, 2.24 2.3, 2.19 2.35 C2.13 2.4, 2.06 2.44, 2 2.48 C1.93 2.52, 1.86 2.55, 1.79 2.58 C1.71 2.61, 1.64 2.63, 1.56 2.64 C1.49 2.65, 1.41 2.66, 1.33 2.66 C1.25 2.66, 1.18 2.65, 1.1 2.64 C1.02 2.63, 0.95 2.61, 0.88 2.58 C0.8 2.55, 0.73 2.52, 0.67 2.48 C0.6 2.44, 0.53 2.4, 0.48 2.35 C0.42 2.3, 0.36 2.24, 0.31 2.19 C0.26 2.13, 0.22 2.06, 0.18 2 C0.14 1.93, 0.11 1.86, 0.08 1.79 C0.05 1.71, 0.03 1.64, 0.02 1.56 C0.01 1.49, 0 1.41, 0 1.33 C0 1.25, 0.01 1.18, 0.02 1.1 C0.03 1.02, 0.05 0.95, 0.08 0.88 C0.11 0.8, 0.14 0.73, 0.18 0.67 C0.22 0.6, 0.26 0.53, 0.31 0.48 C0.36 0.42, 0.42 0.36, 0.48 0.31 C0.53 0.26, 0.6 0.22, 0.67 0.18 C0.73 0.14, 0.8 0.11, 0.88 0.08 C0.95 0.05, 1.02 0.03, 1.1 0.02 C1.18 0.01, 1.25 0, 1.33 0 C1.41 0, 1.49 0.01, 1.56 0.02 C1.64 0.03, 1.71 0.05, 1.79 0.08 C1.86 0.11, 1.93 0.14, 2 0.18 C2.06 0.22, 2.13 0.26, 2.19 0.31 C2.24 0.36, 2.3 0.42, 2.35 0.48 C2.4 0.53, 2.44 0.6, 2.48 0.67 C2.52 0.73, 2.55 0.8, 2.58 0.88 C2.61 0.95, 2.63 1.02, 2.64 1.1 C2.65 1.18, 2.66 1.29, 2.66 1.33 C2.66 1.37, 2.66 1.29, 2.66 1.33" stroke="none" stroke-width="0" fill="#000"></path><path d="M2.66 1.33 C2.66 1.41, 2.65 1.49, 2.64 1.56 C2.63 1.64, 2.61 1.71, 2.58 1.79 C2.55 1.86, 2.52 1.93, 2.48 2 C2.44 2.06, 2.4 2.13, 2.35 2.19 C2.3 2.24, 2.24 2.3, 2.19 2.35 C2.13 2.4, 2.06 2.44, 2 2.48 C1.93 2.52, 1.86 2.55, 1.79 2.58 C1.71 2.61, 1.64 2.63, 1.56 2.64 C1.49 2.65, 1.41 2.66, 1.33 2.66 C1.25 2.66, 1.18 2.65, 1.1 2.64 C1.02 2.63, 0.95 2.61, 0.88 2.58 C0.8 2.55, 0.73 2.52, 0.67 2.48 C0.6 2.44, 0.53 2.4, 0.48 2.35 C0.42 2.3, 0.36 2.24, 0.31 2.19 C0.26 2.13, 0.22 2.06, 0.18 2 C0.14 1.93, 0.11 1.86, 0.08 1.79 C0.05 1.71, 0.03 1.64, 0.02 1.56 C0.01 1.49, 0 1.41, 0 1.33 C0 1.25, 0.01 1.18, 0.02 1.1 C0.03 1.02, 0.05 0.95, 0.08 0.88 C0.11 0.8, 0.14 0.73, 0.18 0.67 C0.22 0.6, 0.26 0.53, 0.31 0.48 C0.36 0.42, 0.42 0.36, 0.48 0.31 C0.53 0.26, 0.6 0.22, 0.67 0.18 C0.73 0.14, 0.8 0.11, 0.88 0.08 C0.95 0.05, 1.02 0.03, 1.1 0.02 C1.18 0.01, 1.25 0, 1.33 0 C1.41 0, 1.49 0.01, 1.56 0.02 C1.64 0.03, 1.71 0.05, 1.79 0.08 C1.86 0.11, 1.93 0.14, 2 0.18 C2.06 0.22, 2.13 0.26, 2.19 0.31 C2.24 0.36, 2.3 0.42, 2.35 0.48 C2.4 0.53, 2.44 0.6, 2.48 0.67 C2.52 0.73, 2.55 0.8, 2.58 0.88 C2.61 0.95, 2.63 1.02, 2.64 1.1 C2.65 1.18, 2.66 1.29, 2.66 1.33 C2.66 1.37, 2.66 1.29, 2.66 1.33" stroke="#000000" stroke-width="1.5" fill="none" stroke-dasharray="8 9"></path></g></g><g clip-path="url(#gnM5-5ycZO9aeW1gxfxWL)"><g stroke-linecap="round"><g stroke-opacity="0.8" fill-opacity="0.8" transform="translate(578.3999633789062 80.75126041965162) rotate(269.97732772573056 0 405.9157411634828)"><path d="M0 0 C79.83 45.47, 159.91 91.26, 351.53 202.96 M0 0 C92.34 52.35, 184.81 105.2, 351.53 202.96 M351.53 202.96 C352.13 337.56, 352.29 471.73, 351.53 608.87 M351.53 202.96 C352.94 293.6, 352.26 383.34, 351.53 608.87 M351.53 608.87 C269.25 657.4, 186.49 704.02, 0 811.83 M351.53 608.87 C245.37 671.3, 140.44 731.86, 0 811.83 M0 811.83 C-72.32 769.61, -143.94 729.07, -351.53 608.87 M0 811.83 C-118.31 745.84, -235.08 677.44, -351.53 608.87 M-351.53 608.87 C-352.18 469.33, -352.22 329.82, -351.53 202.96 M-351.53 608.87 C-350.19 458.93, -349.39 308.31, -351.53 202.96 M-351.53 202.96 C-263.45 153.65, -175.28 102.04, 0 0 M-351.53 202.96 C-237.46 137.12, -124.49 72.1, 0 0" stroke="#000000" stroke-width="1" fill="none"></path></g></g><mask></mask></g><g clip-path="url(#gnM5-5ycZO9aeW1gxfxWL)"><g stroke-opacity="0.8" fill-opacity="0.8" stroke-linecap="round" transform="translate(577.6650830575927 134.7966704235867) rotate(269.97732772573056 0.29156867509573203 0.2915686750957178)"><path d="M0.58 0.29 C0.58 0.31, 0.58 0.33, 0.58 0.34 C0.58 0.36, 0.57 0.38, 0.57 0.39 C0.56 0.41, 0.55 0.42, 0.54 0.44 C0.54 0.45, 0.53 0.47, 0.51 0.48 C0.5 0.49, 0.49 0.5, 0.48 0.51 C0.47 0.53, 0.45 0.54, 0.44 0.54 C0.42 0.55, 0.41 0.56, 0.39 0.57 C0.38 0.57, 0.36 0.58, 0.34 0.58 C0.33 0.58, 0.31 0.58, 0.29 0.58 C0.27 0.58, 0.26 0.58, 0.24 0.58 C0.22 0.58, 0.21 0.57, 0.19 0.57 C0.18 0.56, 0.16 0.55, 0.15 0.54 C0.13 0.54, 0.12 0.53, 0.1 0.51 C0.09 0.5, 0.08 0.49, 0.07 0.48 C0.06 0.47, 0.05 0.45, 0.04 0.44 C0.03 0.42, 0.02 0.41, 0.02 0.39 C0.01 0.38, 0.01 0.36, 0 0.34 C0 0.33, 0 0.31, 0 0.29 C0 0.27, 0 0.26, 0 0.24 C0.01 0.22, 0.01 0.21, 0.02 0.19 C0.02 0.18, 0.03 0.16, 0.04 0.15 C0.05 0.13, 0.06 0.12, 0.07 0.1 C0.08 0.09, 0.09 0.08, 0.1 0.07 C0.12 0.06, 0.13 0.05, 0.15 0.04 C0.16 0.03, 0.18 0.02, 0.19 0.02 C0.21 0.01, 0.22 0.01, 0.24 0 C0.26 0, 0.27 0, 0.29 0 C0.31 0, 0.33 0, 0.34 0 C0.36 0.01, 0.38 0.01, 0.39 0.02 C0.41 0.02, 0.42 0.03, 0.44 0.04 C0.45 0.05, 0.47 0.06, 0.48 0.07 C0.49 0.08, 0.5 0.09, 0.51 0.1 C0.53 0.12, 0.54 0.13, 0.54 0.15 C0.55 0.16, 0.56 0.18, 0.57 0.19 C0.57 0.21, 0.58 0.22, 0.58 0.24 C0.58 0.26, 0.58 0.28, 0.58 0.29 C0.58 0.3, 0.58 0.28, 0.58 0.29" stroke="none" stroke-width="0" fill="#000"></path><path d="M0.58 0.29 C0.58 0.31, 0.58 0.33, 0.58 0.34 C0.58 0.36, 0.57 0.38, 0.57 0.39 C0.56 0.41, 0.55 0.42, 0.54 0.44 C0.54 0.45, 0.53 0.47, 0.51 0.48 C0.5 0.49, 0.49 0.5, 0.48 0.51 C0.47 0.53, 0.45 0.54, 0.44 0.54 C0.42 0.55, 0.41 0.56, 0.39 0.57 C0.38 0.57, 0.36 0.58, 0.34 0.58 C0.33 0.58, 0.31 0.58, 0.29 0.58 C0.27 0.58, 0.26 0.58, 0.24 0.58 C0.22 0.58, 0.21 0.57, 0.19 0.57 C0.18 0.56, 0.16 0.55, 0.15 0.54 C0.13 0.54, 0.12 0.53, 0.1 0.51 C0.09 0.5, 0.08 0.49, 0.07 0.48 C0.06 0.47, 0.05 0.45, 0.04 0.44 C0.03 0.42, 0.02 0.41, 0.02 0.39 C0.01 0.38, 0.01 0.36, 0 0.34 C0 0.33, 0 0.31, 0 0.29 C0 0.27, 0 0.26, 0 0.24 C0.01 0.22, 0.01 0.21, 0.02 0.19 C0.02 0.18, 0.03 0.16, 0.04 0.15 C0.05 0.13, 0.06 0.12, 0.07 0.1 C0.08 0.09, 0.09 0.08, 0.1 0.07 C0.12 0.06, 0.13 0.05, 0.15 0.04 C0.16 0.03, 0.18 0.02, 0.19 0.02 C0.21 0.01, 0.22 0.01, 0.24 0 C0.26 0, 0.27 0, 0.29 0 C0.31 0, 0.33 0, 0.34 0 C0.36 0.01, 0.38 0.01, 0.39 0.02 C0.41 0.02, 0.42 0.03, 0.44 0.04 C0.45 0.05, 0.47 0.06, 0.48 0.07 C0.49 0.08, 0.5 0.09, 0.51 0.1 C0.53 0.12, 0.54 0.13, 0.54 0.15 C0.55 0.16, 0.56 0.18, 0.57 0.19 C0.57 0.21, 0.58 0.22, 0.58 0.24 C0.58 0.26, 0.58 0.28, 0.58 0.29 C0.58 0.3, 0.58 0.28, 0.58 0.29" stroke="#000000" stroke-width="1.5" fill="none" stroke-dasharray="8 9"></path></g></g><g clip-path="url(#gnM5-5ycZO9aeW1gxfxWL)"><g stroke-opacity="0.8" fill-opacity="0.8" stroke-linecap="round" transform="translate(577.1159664095776 837.2449143003753) rotate(269.97732772573056 0.840685323086575 0.840685323086575)"><path d="M1.68 0.84 C1.68 0.89, 1.68 0.94, 1.67 0.99 C1.66 1.03, 1.65 1.08, 1.63 1.13 C1.61 1.17, 1.59 1.22, 1.57 1.26 C1.54 1.3, 1.52 1.34, 1.48 1.38 C1.45 1.42, 1.42 1.45, 1.38 1.48 C1.34 1.52, 1.3 1.54, 1.26 1.57 C1.22 1.59, 1.17 1.61, 1.13 1.63 C1.08 1.65, 1.03 1.66, 0.99 1.67 C0.94 1.68, 0.89 1.68, 0.84 1.68 C0.79 1.68, 0.74 1.68, 0.69 1.67 C0.65 1.66, 0.6 1.65, 0.55 1.63 C0.51 1.61, 0.46 1.59, 0.42 1.57 C0.38 1.54, 0.34 1.52, 0.3 1.48 C0.26 1.45, 0.23 1.42, 0.2 1.38 C0.17 1.34, 0.14 1.3, 0.11 1.26 C0.09 1.22, 0.07 1.17, 0.05 1.13 C0.03 1.08, 0.02 1.03, 0.01 0.99 C0 0.94, 0 0.89, 0 0.84 C0 0.79, 0 0.74, 0.01 0.69 C0.02 0.65, 0.03 0.6, 0.05 0.55 C0.07 0.51, 0.09 0.46, 0.11 0.42 C0.14 0.38, 0.17 0.34, 0.2 0.3 C0.23 0.26, 0.26 0.23, 0.3 0.2 C0.34 0.17, 0.38 0.14, 0.42 0.11 C0.46 0.09, 0.51 0.07, 0.55 0.05 C0.6 0.03, 0.65 0.02, 0.69 0.01 C0.74 0, 0.79 0, 0.84 0 C0.89 0, 0.94 0, 0.99 0.01 C1.03 0.02, 1.08 0.03, 1.13 0.05 C1.17 0.07, 1.22 0.09, 1.26 0.11 C1.3 0.14, 1.34 0.17, 1.38 0.2 C1.42 0.23, 1.45 0.26, 1.48 0.3 C1.52 0.34, 1.54 0.38, 1.57 0.42 C1.59 0.46, 1.61 0.51, 1.63 0.55 C1.65 0.6, 1.66 0.65, 1.67 0.69 C1.68 0.74, 1.68 0.82, 1.68 0.84 C1.68 0.87, 1.68 0.82, 1.68 0.84" stroke="none" stroke-width="0" fill="#000"></path><path d="M1.68 0.84 C1.68 0.89, 1.68 0.94, 1.67 0.99 C1.66 1.03, 1.65 1.08, 1.63 1.13 C1.61 1.17, 1.59 1.22, 1.57 1.26 C1.54 1.3, 1.52 1.34, 1.48 1.38 C1.45 1.42, 1.42 1.45, 1.38 1.48 C1.34 1.52, 1.3 1.54, 1.26 1.57 C1.22 1.59, 1.17 1.61, 1.13 1.63 C1.08 1.65, 1.03 1.66, 0.99 1.67 C0.94 1.68, 0.89 1.68, 0.84 1.68 C0.79 1.68, 0.74 1.68, 0.69 1.67 C0.65 1.66, 0.6 1.65, 0.55 1.63 C0.51 1.61, 0.46 1.59, 0.42 1.57 C0.38 1.54, 0.34 1.52, 0.3 1.48 C0.26 1.45, 0.23 1.42, 0.2 1.38 C0.17 1.34, 0.14 1.3, 0.11 1.26 C0.09 1.22, 0.07 1.17, 0.05 1.13 C0.03 1.08, 0.02 1.03, 0.01 0.99 C0 0.94, 0 0.89, 0 0.84 C0 0.79, 0 0.74, 0.01 0.69 C0.02 0.65, 0.03 0.6, 0.05 0.55 C0.07 0.51, 0.09 0.46, 0.11 0.42 C0.14 0.38, 0.17 0.34, 0.2 0.3 C0.23 0.26, 0.26 0.23, 0.3 0.2 C0.34 0.17, 0.38 0.14, 0.42 0.11 C0.46 0.09, 0.51 0.07, 0.55 0.05 C0.6 0.03, 0.65 0.02, 0.69 0.01 C0.74 0, 0.79 0, 0.84 0 C0.89 0, 0.94 0, 0.99 0.01 C1.03 0.02, 1.08 0.03, 1.13 0.05 C1.17 0.07, 1.22 0.09, 1.26 0.11 C1.3 0.14, 1.34 0.17, 1.38 0.2 C1.42 0.23, 1.45 0.26, 1.48 0.3 C1.52 0.34, 1.54 0.38, 1.57 0.42 C1.59 0.46, 1.61 0.51, 1.63 0.55 C1.65 0.6, 1.66 0.65, 1.67 0.69 C1.68 0.74, 1.68 0.82, 1.68 0.84 C1.68 0.87, 1.68 0.82, 1.68 0.84" stroke="#000000" stroke-width="1.5" fill="none" stroke-dasharray="8 9"></path></g></g><g clip-path="url(#gnM5-5ycZO9aeW1gxfxWL)"><g stroke-opacity="0.8" fill-opacity="0.8" stroke-linecap="round" transform="translate(218.7107551842837 293.0077680683506) rotate(0 56.86480210581357 54.30859385877119)"><path d="M-1.77 0.24 L114.83 -1.92 L112.78 109.65 L-1.39 108.5" stroke="none" stroke-width="0" fill="#a5d8ff"></path><path d="M0 0 C24.66 1.29, 49.52 -0.03, 113.73 0 M0 0 C40.01 -1.58, 81.56 -0.71, 113.73 0 M113.73 0 C114.91 34.57, 114.21 71.56, 113.73 108.62 M113.73 0 C114.61 38.62, 113.83 78.03, 113.73 108.62 M113.73 108.62 C88.38 105.84, 59.79 108.23, 0 108.62 M113.73 108.62 C78.58 109.88, 43.19 110.34, 0 108.62 M0 108.62 C-1.42 83.65, -0.51 58.75, 0 0 M0 108.62 C0.43 82.19, -1.28 54.08, 0 0" stroke="#000000" stroke-width="1" fill="none"></path></g></g><g clip-path="url(#gnM5-5ycZO9aeW1gxfxWL)"><g stroke-opacity="0.8" fill-opacity="0.8" transform="translate(226.61239963624848 323.9128879480439) rotate(0 49.763084411621094 21.990962983669277)"><text x="49.763084411621094" y="0" font-family="Virgil, Segoe UI Emoji" font-size="18.618047516930353px" fill="#000000" text-anchor="middle" style="white-space: pre;" direction="ltr" dominant-baseline="text-before-edge">File-based </text><text x="49.763084411621094" y="21.99096298366927" font-family="Virgil, Segoe UI Emoji" font-size="18.618047516930353px" fill="#000000" text-anchor="middle" style="white-space: pre;" direction="ltr" dominant-baseline="text-before-edge">Streaming</text></g></g><g clip-path="url(#gnM5-5ycZO9aeW1gxfxWL)"><g stroke-linecap="round"><g stroke-opacity="0.8" fill-opacity="0.8" transform="translate(334.13156374692653 367.1223189261148) rotate(0 20.78986534775578 6.787385540859759)"><path d="M0 0 C6.93 2.26, 34.65 11.31, 41.58 13.57 M0 0 C6.93 2.26, 34.65 11.31, 41.58 13.57" stroke="#000000" stroke-width="1" fill="none"></path></g></g><mask></mask></g><g clip-path="url(#gnM5-5ycZO9aeW1gxfxWL)"><g stroke-opacity="0.8" fill-opacity="0.8" stroke-linecap="round" transform="translate(380.63211807167136 344.9452680683506) rotate(0 56.86480210581357 54.30859385877119)"><path d="M0 0 C0 0, 0 0, 0 0 M0 0 C0 0, 0 0, 0 0 M-0.26 6.4 C0.76 5.5, 2.26 4.07, 4.99 0.36 M-0.26 6.4 C2.12 4.26, 3.93 1.96, 4.99 0.36 M0.13 12.04 C1.71 7.83, 6.16 5.6, 10.63 -0.03 M0.13 12.04 C2.57 8.58, 4.85 5.05, 10.63 -0.03 M-0.13 18.44 C5.31 11.08, 12.18 6.27, 15.62 0.33 M-0.13 18.44 C3.26 14.7, 6.8 9.54, 15.62 0.33 M0.27 24.08 C9.15 12.97, 17.01 5.8, 21.26 -0.07 M0.27 24.08 C9.35 15.64, 17.26 5.98, 21.26 -0.07 M0 30.48 C10.92 17.61, 22.45 6.57, 26.25 0.29 M0 30.48 C7.96 23.23, 13.62 15.52, 26.25 0.29 M-0.26 36.88 C7.9 28.18, 16.56 18.14, 31.89 -0.1 M-0.26 36.88 C7.55 26.84, 15.21 18.43, 31.89 -0.1 M0.14 42.52 C14 27.87, 23.22 15.71, 36.88 0.26 M0.14 42.52 C9.6 32.64, 18.05 22.25, 36.88 0.26 M-0.12 48.92 C15.02 29.66, 31.24 12.72, 42.52 -0.14 M-0.12 48.92 C17.03 31.28, 33.28 12.23, 42.52 -0.14 M0.27 54.56 C14.89 36.5, 32.34 18.78, 47.51 0.22 M0.27 54.56 C18.64 33.5, 36.21 12.93, 47.51 0.22 M0.01 60.96 C17.43 41.53, 33.05 19.81, 53.15 -0.17 M0.01 60.96 C11.51 47, 25.24 31.91, 53.15 -0.17 M-0.25 67.36 C17.9 43.72, 39.08 20.12, 58.14 0.19 M-0.25 67.36 C19.22 46.35, 37.51 24.81, 58.14 0.19 M0.14 73 C14.22 56.3, 31.77 37.07, 63.78 -0.21 M0.14 73 C22.14 46.86, 42.78 21.77, 63.78 -0.21 M-0.12 79.4 C19.52 57.25, 37.7 35.09, 68.77 0.15 M-0.12 79.4 C28.04 48.89, 55.69 15.84, 68.77 0.15 M0.28 85.04 C27.24 56, 53.56 25.1, 74.41 -0.24 M0.28 85.04 C25.73 54.6, 52.04 24.5, 74.41 -0.24 M0.01 91.44 C17.34 72.54, 35.27 49.77, 79.4 0.12 M0.01 91.44 C24.88 62.32, 50.54 33.54, 79.4 0.12 M-0.25 97.84 C21.61 71.1, 46.23 43.98, 85.04 -0.28 M-0.25 97.84 C32.39 60.64, 64.56 23.77, 85.04 -0.28 M0.15 103.48 C26.98 71.24, 53.46 43.01, 90.03 0.08 M0.15 103.48 C25.26 74.14, 52.65 43.8, 90.03 0.08 M0.54 109.12 C22.45 81.45, 44.52 58.34, 95.67 -0.31 M0.54 109.12 C24.56 81.38, 49.95 52.64, 95.67 -0.31 M6.19 108.73 C33.66 74.53, 66.02 38.44, 100.66 0.05 M6.19 108.73 C38.72 71.77, 71.55 35.51, 100.66 0.05 M11.17 109.09 C44.32 69.49, 81.85 30.98, 106.3 -0.34 M11.17 109.09 C38.64 77.32, 67.4 44.76, 106.3 -0.34 M16.16 109.45 C50.69 68.1, 86.07 29.79, 111.29 0.02 M16.16 109.45 C49.97 69.44, 85.58 28.11, 111.29 0.02 M21.8 109.05 C55.94 72.2, 86.75 35.96, 113.65 3.39 M21.8 109.05 C52.45 73.61, 83.03 38.48, 113.65 3.39 M26.79 109.41 C46.16 89.2, 66.49 65.4, 114.05 9.04 M26.79 109.41 C50.54 81.46, 75.57 53.84, 114.05 9.04 M32.43 109.02 C64.84 76.41, 92.16 41.3, 113.78 15.43 M32.43 109.02 C53.43 85.86, 74.55 62.42, 113.78 15.43 M37.42 109.38 C62.82 83.01, 86.16 53.02, 114.18 21.08 M37.42 109.38 C57.94 86.92, 78.27 63.05, 114.18 21.08 M43.06 108.98 C70.44 79.69, 93.46 49.56, 113.92 27.48 M43.06 108.98 C63.06 85.3, 83.44 62.12, 113.92 27.48 M48.05 109.34 C62.23 94.13, 73.56 76.53, 113.66 33.87 M48.05 109.34 C68.62 85.39, 89.03 62.36, 113.66 33.87 M53.69 108.95 C74.97 81.81, 100.1 57.7, 114.05 39.52 M53.69 108.95 C71.57 86.82, 91.12 64.53, 114.05 39.52 M58.68 109.31 C74 90.71, 88.66 74.25, 113.79 45.91 M58.68 109.31 C75.22 88.92, 94 69.15, 113.79 45.91 M64.32 108.92 C73.36 98.8, 84.88 86.09, 114.18 51.56 M64.32 108.92 C82.23 86.82, 99 67.36, 114.18 51.56 M69.31 109.28 C77.08 99.16, 89.07 85.46, 113.92 57.96 M69.31 109.28 C84.16 90.08, 100.59 71.88, 113.92 57.96 M74.95 108.88 C89.98 95.41, 103.54 77.12, 113.66 64.35 M74.95 108.88 C87.3 95.29, 96.74 83.71, 113.66 64.35 M79.94 109.24 C88.61 100.31, 92.48 93.91, 114.05 70 M79.94 109.24 C88.04 100.95, 95.18 91.8, 114.05 70 M85.58 108.85 C93.51 98.79, 101.82 93.36, 113.79 76.39 M85.58 108.85 C94.62 98.16, 104.15 87.63, 113.79 76.39 M90.57 109.21 C98.6 102.55, 104.64 92.95, 113.53 82.79 M90.57 109.21 C95.69 102.12, 102.06 95.46, 113.53 82.79 M96.21 108.81 C102.29 100.98, 107.66 96.05, 113.93 88.43 M96.21 108.81 C102.26 103.27, 105.82 96.93, 113.93 88.43 M101.2 109.17 C106.73 105.31, 111.18 97.56, 113.67 94.83 M101.2 109.17 C105.05 103.19, 111.28 98.97, 113.67 94.83 M106.84 108.78 C108.44 106.11, 110.49 104.83, 114.06 100.48 M106.84 108.78 C108.19 106.48, 109.91 104.61, 114.06 100.48 M111.83 109.14 C112.35 108.39, 112.8 107.66, 113.8 106.87 M111.83 109.14 C112.72 108.31, 113.51 107.32, 113.8 106.87 M-0.2 108.45 C-0.2 108.45, -0.2 108.45, -0.2 108.45 M-0.2 108.45 C-0.2 108.45, -0.2 108.45, -0.2 108.45 M6.2 108.71 C4.63 106.5, 1.32 104.78, 0.16 103.46 M6.2 108.71 C3.72 106.32, 1.49 104.63, 0.16 103.46 M11.85 108.31 C6.83 105.02, 4.14 101.4, -0.23 97.82 M11.85 108.31 C7.86 104.72, 5.25 101.75, -0.23 97.82 M18.24 108.58 C15.2 105.24, 9.94 98.77, 0.13 92.83 M18.24 108.58 C11.21 101.92, 4.8 96.89, 0.13 92.83 M24.64 108.84 C18.02 103.7, 7.57 94.96, -0.26 87.19 M24.64 108.84 C18.95 103.41, 12.42 99.08, -0.26 87.19 M30.28 108.44 C21.11 98.88, 8.17 89.78, 0.1 82.2 M30.28 108.44 C20.92 100.38, 9.54 89.65, 0.1 82.2 M36.68 108.7 C26.29 98.77, 16.62 90.38, -0.3 76.56 M36.68 108.7 C22.98 96.24, 8.18 84.08, -0.3 76.56 M42.32 108.31 C32.43 99.16, 19.84 88.32, 0.06 71.57 M42.32 108.31 C30.81 99.35, 20.28 88.31, 0.06 71.57 M48.72 108.57 C34.31 97.28, 23.36 86.97, -0.33 65.93 M48.72 108.57 C28.91 91.88, 9.08 75.08, -0.33 65.93 M55.12 108.83 C35.87 91.81, 20.68 76.78, 0.03 60.94 M55.12 108.83 C40.28 96.31, 23.75 82.7, 0.03 60.94 M60.76 108.44 C36.77 89, 13.56 67.73, -0.37 55.3 M60.76 108.44 C47.58 97.27, 35.45 86.19, -0.37 55.3 M67.16 108.7 C55.66 97.11, 42.06 84.36, -0.01 50.31 M67.16 108.7 C50.97 93.63, 36.02 80.04, -0.01 50.31 M72.8 108.3 C49.53 86.98, 23.02 62.66, 0.35 45.32 M72.8 108.3 C53.76 90.81, 33.44 74.31, 0.35 45.32 M79.2 108.57 C61.44 95.84, 46.56 81.16, -0.04 39.68 M79.2 108.57 C60.52 91.4, 39.93 72.7, -0.04 39.68 M85.6 108.83 C51.99 78.6, 18.29 49.22, 0.32 34.69 M85.6 108.83 C66.81 91.87, 46.52 74.83, 0.32 34.69 M91.24 108.43 C58.28 76.93, 21.84 48.01, -0.08 29.05 M91.24 108.43 C57.54 78.43, 24.28 49.59, -0.08 29.05 M97.64 108.69 C67.73 84.66, 37.71 55.87, 0.28 24.06 M97.64 108.69 C78.95 91.19, 58.82 74.95, 0.28 24.06 M103.28 108.3 C81.68 87.81, 61.97 70.96, -0.11 18.42 M103.28 108.3 C77.27 87.28, 52.6 63.71, -0.11 18.42 M109.68 108.56 C85.6 86.95, 61.65 66.01, 0.25 13.43 M109.68 108.56 C79.17 83.57, 50.69 56.9, 0.25 13.43 M113.82 106.85 C74.35 73.48, 33.82 39.32, -0.15 7.79 M113.82 106.85 C82.52 78.37, 51.87 51.59, -0.15 7.79 M114.18 101.87 C88.31 80.68, 66.63 61.08, 0.21 2.8 M114.18 101.87 C68.81 64.06, 23.74 23.31, 0.21 2.8 M113.78 96.22 C82.11 69.9, 47.41 39.77, 2.84 -0.22 M113.78 96.22 C81.8 69.29, 50.95 42.75, 2.84 -0.22 M114.14 91.24 C85.04 64.93, 55.71 39.05, 9.24 0.04 M114.14 91.24 C76.47 60.44, 39.17 27.13, 9.24 0.04 M113.75 85.59 C88.57 63.19, 62.67 42.44, 15.63 0.31 M113.75 85.59 C91.52 67.72, 69.48 48.8, 15.63 0.31 M114.11 80.61 C92.2 63.28, 67.5 42.15, 21.28 -0.09 M114.11 80.61 C81.9 52.16, 47.5 24.12, 21.28 -0.09 M113.71 74.96 C84.74 52.12, 57.91 24.7, 27.67 0.17 M113.71 74.96 C90.16 53.34, 65.88 34.33, 27.67 0.17 M114.07 69.98 C82.86 42.63, 53.86 16.86, 33.32 -0.22 M114.07 69.98 C96.15 53.39, 77.55 36.88, 33.32 -0.22 M113.68 64.33 C91.76 44.1, 68.93 26.48, 39.72 0.04 M113.68 64.33 C88.13 41.02, 61.96 19.41, 39.72 0.04 M114.04 59.35 C90.23 37.53, 68.08 17.26, 46.11 0.3 M114.04 59.35 C97.78 43.42, 80.47 30.2, 46.11 0.3 M113.64 53.7 C96.39 39.1, 78.13 22.39, 51.76 -0.09 M113.64 53.7 C101.22 42.34, 86.55 30.66, 51.76 -0.09 M114 48.72 C96.27 34.25, 77.07 17.75, 58.15 0.17 M114 48.72 C97.31 35.45, 82.15 19.72, 58.15 0.17 M113.61 43.07 C100.13 32.36, 85.7 18.56, 63.8 -0.23 M113.61 43.07 C98.54 30.5, 82.56 16.41, 63.8 -0.23 M113.97 38.09 C99.4 27.73, 83.68 12.51, 70.2 0.04 M113.97 38.09 C100.02 25.57, 87.42 14.35, 70.2 0.04 M114.33 33.1 C100.1 22.75, 87.32 10.8, 76.59 0.3 M114.33 33.1 C101.41 21.12, 86.45 9.01, 76.59 0.3 M113.93 27.46 C101.06 18.69, 90.18 8.44, 82.24 -0.1 M113.93 27.46 C107.8 21.02, 99.24 14.97, 82.24 -0.1 M114.29 22.47 C106.46 15.27, 102.09 12.16, 88.63 0.16 M114.29 22.47 C104.67 13.3, 94.91 4.98, 88.63 0.16 M113.9 16.83 C105.16 12.23, 97.63 6.27, 94.28 -0.23 M113.9 16.83 C108.58 12.43, 103.24 8.59, 94.28 -0.23 M114.26 11.84 C110.99 9.93, 104.48 4.44, 100.67 0.03 M114.26 11.84 C111.08 8.8, 107.85 5.36, 100.67 0.03 M113.86 6.2 C112.49 5.37, 110.39 3.68, 107.07 0.29 M113.86 6.2 C111.62 3.7, 108.54 1.93, 107.07 0.29 M114.22 1.21 C113.77 1.05, 113.45 0.75, 112.72 -0.1 M114.22 1.21 C113.64 0.65, 113.16 0.2, 112.72 -0.1" stroke="#a5d8ff" stroke-width="0.5" fill="none"></path><path d="M0 0 C31.61 -0.93, 58.85 1.16, 113.73 0 M0 0 C34.21 -0.88, 69.63 -1.23, 113.73 0 M113.73 0 C115.22 31.43, 114.3 61.47, 113.73 108.62 M113.73 0 C112.27 41.59, 112.11 81.56, 113.73 108.62 M113.73 108.62 C78.35 108.28, 40.42 108.41, 0 108.62 M113.73 108.62 C71.24 108.81, 27.66 109.27, 0 108.62 M0 108.62 C-0.55 67.64, 1.94 21.46, 0 0 M0 108.62 C1.51 78.16, 0.49 50.13, 0 0" stroke="#087f5b" stroke-width="1" fill="none"></path></g></g><g clip-path="url(#gnM5-5ycZO9aeW1gxfxWL)"><g stroke-opacity="0.8" fill-opacity="0.8" transform="translate(386.12696320727 374.25386192712176) rotate(0 51.369956970214844 25)"><text x="51.369956970214844" y="0" font-family="Virgil, Segoe UI Emoji" font-size="20px" fill="#1e1e1e" text-anchor="middle" style="white-space: pre;" direction="ltr" dominant-baseline="text-before-edge">Streaming </text><text x="51.369956970214844" y="25" font-family="Virgil, Segoe UI Emoji" font-size="20px" fill="#1e1e1e" text-anchor="middle" style="white-space: pre;" direction="ltr" dominant-baseline="text-before-edge">Interface</text></g></g><g clip-path="url(#gnM5-5ycZO9aeW1gxfxWL)"><g stroke-opacity="0.8" fill-opacity="0.8" transform="translate(405.7968469352618 460.6503757410126) rotate(0 32.5 23)"><text x="32.5" y="0" font-family="Virgil, Segoe UI Emoji" font-size="18.618047516930353px" fill="#000000" text-anchor="middle" style="white-space: pre;" direction="ltr" dominant-baseline="text-before-edge">Primary</text><text x="32.5" y="23" font-family="Virgil, Segoe UI Emoji" font-size="18.618047516930353px" fill="#000000" text-anchor="middle" style="white-space: pre;" direction="ltr" dominant-baseline="text-before-edge">Port</text></g></g><g clip-path="url(#gnM5-5ycZO9aeW1gxfxWL)"><g stroke-opacity="0.64" fill-opacity="0.64" stroke-linecap="round" transform="translate(676.0272662044117 509.4291391973732) rotate(0 51.03068715452878 48.7367362652964)"><path d="M0 0 C0 0, 0 0, 0 0 M0 0 C0 0, 0 0, 0 0 M-0.26 6.4 C2.47 3.42, 4.15 2.35, 4.99 0.36 M-0.26 6.4 C1.65 4.27, 3.79 1.55, 4.99 0.36 M0.13 12.04 C2.21 8.62, 7.04 5.08, 10.63 -0.03 M0.13 12.04 C3.46 9.41, 5.2 5.75, 10.63 -0.03 M-0.13 18.44 C2.32 12.96, 7.25 8.65, 15.62 0.33 M-0.13 18.44 C6.24 13.35, 10.01 6.67, 15.62 0.33 M0.27 24.08 C6.54 17.88, 8.61 15.22, 21.26 -0.07 M0.27 24.08 C8.97 13.97, 15.38 5.93, 21.26 -0.07 M0 30.48 C5.76 21.25, 11.61 16.75, 26.25 0.29 M0 30.48 C8.92 19.25, 18.37 8.96, 26.25 0.29 M-0.26 36.88 C9.07 25.6, 19.05 12.66, 31.89 -0.1 M-0.26 36.88 C6.84 29.5, 13.54 22.67, 31.89 -0.1 M0.14 42.52 C9.06 29.51, 19.17 20.32, 36.88 0.26 M0.14 42.52 C11.65 29.98, 21.73 17.21, 36.88 0.26 M-0.12 48.92 C14.46 34.22, 23.59 21.62, 42.52 -0.14 M-0.12 48.92 C15.35 30.91, 31.26 12.33, 42.52 -0.14 M0.27 54.56 C17.15 35.58, 29.45 19.12, 47.51 0.22 M0.27 54.56 C11.68 41.36, 22.57 29.42, 47.51 0.22 M0.01 60.96 C16.76 42.59, 33.32 19.65, 53.15 -0.17 M0.01 60.96 C17.3 41.69, 34.71 21.35, 53.15 -0.17 M-0.25 67.36 C15.57 50.99, 28.76 33.76, 58.14 0.19 M-0.25 67.36 C19.47 44.04, 40.06 19.66, 58.14 0.19 M0.14 73 C26.62 44.5, 53.07 15.1, 63.78 -0.21 M0.14 73 C17.91 53.55, 35.55 33.63, 63.78 -0.21 M-0.12 79.4 C19.9 57.31, 36.1 37.94, 68.77 0.15 M-0.12 79.4 C27.32 48.61, 54.63 17.62, 68.77 0.15 M0.28 85.04 C27.97 54.26, 54 21.18, 74.41 -0.24 M0.28 85.04 C20.78 61.76, 41.52 37.35, 74.41 -0.24 M0.01 91.44 C27.29 61.92, 53.66 30.28, 79.4 0.12 M0.01 91.44 C18.51 68.99, 38.43 45.95, 79.4 0.12 M-0.25 97.84 C23.56 70.51, 46.47 45.7, 85.04 -0.28 M-0.25 97.84 C28.49 64.86, 57.63 31.96, 85.04 -0.28 M5.4 97.44 C24.17 76.68, 42.62 52.04, 90.03 0.08 M5.4 97.44 C34.64 61.11, 66.04 26.18, 90.03 0.08 M10.38 97.8 C28.36 76.1, 46.32 54.43, 95.67 -0.31 M10.38 97.8 C34.5 71.48, 57.77 41.86, 95.67 -0.31 M16.03 97.41 C41.38 70.13, 63.93 41.89, 100.66 0.05 M16.03 97.41 C40.1 69.37, 62.89 40.71, 100.66 0.05 M21.01 97.77 C44.97 69.07, 69.05 39.6, 103.02 3.43 M21.01 97.77 C46.9 68.65, 71.98 39.03, 103.02 3.43 M26.66 97.37 C45.33 78.98, 61.39 55.77, 102.76 9.83 M26.66 97.37 C55.44 65.33, 82.2 33.85, 102.76 9.83 M31.64 97.73 C54.05 72.14, 75.32 47.76, 102.5 16.22 M31.64 97.73 C48.49 77.01, 66.49 56.49, 102.5 16.22 M37.29 97.34 C61.27 70.45, 84.93 40.99, 102.89 21.87 M37.29 97.34 C54.17 77.58, 69.4 59.76, 102.89 21.87 M42.27 97.7 C64.94 69.46, 88.09 44.13, 102.63 28.27 M42.27 97.7 C59.31 78.3, 76.15 58.44, 102.63 28.27 M47.92 97.3 C67.84 72, 89.62 49.05, 103.03 33.91 M47.92 97.3 C69.82 72.86, 90.98 49.19, 103.03 33.91 M52.9 97.66 C71.48 77.8, 89.14 55.87, 102.76 40.31 M52.9 97.66 C63.67 84.65, 76.66 71, 102.76 40.31 M58.55 97.27 C73.46 80.89, 88.13 64.51, 102.5 46.7 M58.55 97.27 C72.13 81.96, 84.65 66.92, 102.5 46.7 M63.53 97.63 C74.31 86.96, 84.31 71.82, 102.9 52.35 M63.53 97.63 C74.07 86.29, 85.61 73.54, 102.9 52.35 M69.18 97.23 C77.37 88.34, 85.57 77.03, 102.64 58.74 M69.18 97.23 C78.21 86.41, 89.18 73.59, 102.64 58.74 M74.16 97.59 C86.41 86, 98.24 72.47, 103.03 64.39 M74.16 97.59 C79.74 91.3, 86.48 82.74, 103.03 64.39 M79.81 97.2 C89.23 89.09, 96.36 76.39, 102.77 70.79 M79.81 97.2 C86.04 91.53, 90.49 85.39, 102.77 70.79 M84.79 97.56 C91.24 88.89, 97.1 83.78, 102.51 77.18 M84.79 97.56 C87.61 93.08, 92.96 89.97, 102.51 77.18 M90.44 97.17 C92.33 94.42, 97 91.05, 102.9 82.83 M90.44 97.17 C94.28 92.9, 98.23 87.8, 102.9 82.83 M95.42 97.53 C97.19 94.45, 99.34 93.49, 102.64 89.22 M95.42 97.53 C97.23 95.81, 99.75 93.61, 102.64 89.22 M101.07 97.13 C101.67 96.43, 102.39 95.23, 103.04 94.87 M101.07 97.13 C101.7 96.47, 102.29 95.82, 103.04 94.87 M0.04 97.51 C0.04 97.51, 0.04 97.51, 0.04 97.51 M0.04 97.51 C0.04 97.51, 0.04 97.51, 0.04 97.51 M6.44 97.77 C4.82 95.7, 1.43 93.37, -0.36 91.86 M6.44 97.77 C3.59 95.56, 0.96 92.82, -0.36 91.86 M12.08 97.37 C8.09 94, 3.69 89.7, 0 86.88 M12.08 97.37 C9.23 95.28, 5.83 92.01, 0 86.88 M18.48 97.64 C13.17 93.73, 11.86 91.79, 0.36 81.89 M18.48 97.64 C11.84 90.79, 4.98 85.13, 0.36 81.89 M24.12 97.24 C14.73 90.91, 4.11 80.46, -0.03 76.25 M24.12 97.24 C16.56 90.14, 6.43 83.45, -0.03 76.25 M30.52 97.5 C23.97 89.81, 12.81 82.12, 0.33 71.26 M30.52 97.5 C24.72 92.42, 17.17 85.95, 0.33 71.26 M36.92 97.76 C24.78 87.2, 12.93 76.01, -0.06 65.62 M36.92 97.76 C27.57 89, 18.47 83.1, -0.06 65.62 M42.56 97.37 C28.54 83.25, 10.85 69.9, 0.3 60.63 M42.56 97.37 C34.34 89.32, 25.66 82.72, 0.3 60.63 M48.96 97.63 C28.45 81.64, 11.51 64.25, -0.1 54.99 M48.96 97.63 C38.31 87, 26.41 78.11, -0.1 54.99 M54.6 97.24 C41.22 82.5, 26.93 73.18, 0.26 50 M54.6 97.24 C33.87 79.16, 13.43 61.03, 0.26 50 M61 97.5 C45.95 84.07, 26.76 70.91, -0.13 44.36 M61 97.5 C39.83 81.27, 20.69 63.2, -0.13 44.36 M67.4 97.76 C47.42 80.28, 29.24 63.03, 0.23 39.37 M67.4 97.76 C40.97 74.62, 14.88 52.31, 0.23 39.37 M73.04 97.36 C50.62 77.41, 24.78 55.42, -0.17 33.73 M73.04 97.36 C50.94 77.97, 27.59 57.07, -0.17 33.73 M79.44 97.63 C60.94 82.48, 43.09 67.42, 0.19 28.74 M79.44 97.63 C50.25 70.96, 19.05 44.39, 0.19 28.74 M85.08 97.23 C54.7 73.68, 29.19 46.54, -0.2 23.1 M85.08 97.23 C64.71 79.49, 46.05 63.73, -0.2 23.1 M91.48 97.49 C60.63 70.98, 31.96 45.55, 0.16 18.11 M91.48 97.49 C73.3 80.16, 53.64 65.35, 0.16 18.11 M97.88 97.75 C62.16 65.28, 26.58 36.97, -0.24 12.47 M97.88 97.75 C66.31 72.65, 36.19 44.39, -0.24 12.47 M102.01 96.05 C63.74 62.2, 26.35 33.13, 0.12 7.48 M102.01 96.05 C64.49 62.7, 25.32 29.47, 0.12 7.48 M102.37 91.06 C76.61 67.59, 54.27 48.59, -0.27 1.84 M102.37 91.06 C72.86 65.74, 42.05 40.37, -0.27 1.84 M101.97 85.42 C82.11 64, 58.31 45.52, 3.11 -0.53 M101.97 85.42 C76.6 64.19, 51.85 41.34, 3.11 -0.53 M102.33 80.43 C67.41 50.67, 36.96 24.28, 9.51 -0.26 M102.33 80.43 C78.39 60.48, 55.47 40.79, 9.51 -0.26 M101.94 74.79 C77.55 56.9, 56.56 35.53, 15.9 0 M101.94 74.79 C69.49 47.47, 39.24 19.6, 15.9 0 M102.3 69.8 C83.25 54.05, 64.8 35, 21.55 -0.4 M102.3 69.8 C73.85 44.66, 45.02 19.23, 21.55 -0.4 M101.91 64.16 C76.58 42.27, 51.82 20.79, 27.94 -0.14 M101.91 64.16 C85.54 50.97, 70.11 36, 27.94 -0.14 M102.27 59.17 C81.94 38.63, 59.37 19.64, 33.59 -0.53 M102.27 59.17 C75.82 35.87, 49.02 12.88, 33.59 -0.53 M101.87 53.53 C77.37 33.96, 54.17 10.87, 39.98 -0.27 M101.87 53.53 C85.53 38.85, 70.43 26, 39.98 -0.27 M102.23 48.54 C88.2 37.43, 73.78 23.02, 46.38 -0.01 M102.23 48.54 C81.72 30.35, 61.41 12.78, 46.38 -0.01 M101.84 42.9 C86.11 31.33, 73.21 17.45, 52.03 -0.4 M101.84 42.9 C81.94 25.25, 63.71 9.27, 52.03 -0.4 M102.2 37.91 C86.5 22.82, 69.04 9.81, 58.42 -0.14 M102.2 37.91 C89.64 27.49, 75.91 15.14, 58.42 -0.14 M101.8 32.27 C87.12 18.44, 72.56 6.65, 64.07 -0.54 M101.8 32.27 C93.94 24.8, 84.32 16.55, 64.07 -0.54 M102.16 27.28 C93.31 21.94, 85.6 15.37, 70.46 -0.27 M102.16 27.28 C93.24 18.51, 84.46 11.62, 70.46 -0.27 M101.77 21.64 C96.04 14.24, 89.61 11.03, 76.86 -0.01 M101.77 21.64 C96.41 17.41, 90.23 11.9, 76.86 -0.01 M102.13 16.65 C96.72 12.78, 91.95 9.61, 82.51 -0.41 M102.13 16.65 C98.23 13.03, 95.01 10.26, 82.51 -0.41 M101.73 11.01 C95.88 5.53, 92.6 4.06, 88.9 -0.15 M101.73 11.01 C97.8 7.12, 93.9 3.85, 88.9 -0.15 M102.09 6.02 C99.24 3.22, 96.06 0.38, 94.55 -0.54 M102.09 6.02 C99.03 2.89, 96.04 0.82, 94.55 -0.54 M102.45 1.03 C101.91 0.54, 101.42 0.16, 100.94 -0.28 M102.45 1.03 C101.9 0.58, 101.39 0.03, 100.94 -0.28" stroke="#ffc9c9" stroke-width="0.5" fill="none"></path><path d="M0 0 C25.72 0.05, 52.82 -2.42, 102.06 0 M0 0 C31.72 0.8, 64.51 0.68, 102.06 0 M102.06 0 C103.55 27.12, 103.56 55.17, 102.06 97.47 M102.06 0 C101.4 37.47, 100.31 75.51, 102.06 97.47 M102.06 97.47 C69.94 96.61, 35.69 99.39, 0 97.47 M102.06 97.47 C76.64 97.01, 49.77 96.96, 0 97.47 M0 97.47 C-1.25 57.74, -0.43 22.65, 0 0 M0 97.47 C-0.23 77.53, 0.97 57.14, 0 0" stroke="#000000" stroke-width="1" fill="none"></path></g></g><g clip-path="url(#gnM5-5ycZO9aeW1gxfxWL)"><g stroke-opacity="0.64" fill-opacity="0.64" transform="translate(682.7579960835499 520.6658754626696) rotate(0 44.299957275390625 37.50000000000003)"><text x="44.299957275390625" y="0" font-family="Virgil, Segoe UI Emoji" font-size="20px" fill="#1e1e1e" text-anchor="middle" style="white-space: pre;" direction="ltr" dominant-baseline="text-before-edge">Value </text><text x="44.299957275390625" y="25" font-family="Virgil, Segoe UI Emoji" font-size="20px" fill="#1e1e1e" text-anchor="middle" style="white-space: pre;" direction="ltr" dominant-baseline="text-before-edge">Store </text><text x="44.299957275390625" y="50" font-family="Virgil, Segoe UI Emoji" font-size="20px" fill="#1e1e1e" text-anchor="middle" style="white-space: pre;" direction="ltr" dominant-baseline="text-before-edge">interface</text></g></g><g clip-path="url(#gnM5-5ycZO9aeW1gxfxWL)"><g stroke-opacity="0.64" fill-opacity="0.64" transform="translate(680.6071409420219 609.6759945947099) rotate(0 44.78492736816406 23)"><text x="44.78492736816406" y="0" font-family="Virgil, Segoe UI Emoji" font-size="18.618047516930353px" fill="#000000" text-anchor="middle" style="white-space: pre;" direction="ltr" dominant-baseline="text-before-edge">Secondary</text><text x="44.78492736816406" y="23" font-family="Virgil, Segoe UI Emoji" font-size="18.618047516930353px" fill="#000000" text-anchor="middle" style="white-space: pre;" direction="ltr" dominant-baseline="text-before-edge">Port</text></g></g><g clip-path="url(#gnM5-5ycZO9aeW1gxfxWL)"><g stroke-linecap="round"><g stroke-opacity="0.8" fill-opacity="0.8" transform="translate(779.0886405134693 571.8997256644598) rotate(0 25.741734236474258 6.543164495288522)"><path d="M0 0 C8.58 2.18, 42.9 10.91, 51.48 13.09" stroke="#000000" stroke-width="1.5" fill="none" stroke-dasharray="8 9"></path></g></g><mask></mask></g><g clip-path="url(#gnM5-5ycZO9aeW1gxfxWL)"><g stroke-opacity="0.64" fill-opacity="0.64" transform="translate(833.9586128827252 672.6836702986311) rotate(0 63.34189392451731 32.3747457836422)"><text x="63.341893924517294" y="0" font-family="Virgil, Segoe UI Emoji" font-size="26.20671979775611px" fill="#000000" text-anchor="middle" style="white-space: pre;" direction="ltr" dominant-baseline="text-before-edge">Secondary</text><text x="63.341893924517294" y="32.37474578364217" font-family="Virgil, Segoe UI Emoji" font-size="26.20671979775611px" fill="#000000" text-anchor="middle" style="white-space: pre;" direction="ltr" dominant-baseline="text-before-edge">Adapter</text></g></g><g clip-path="url(#gnM5-5ycZO9aeW1gxfxWL)"><g stroke-opacity="0.64" fill-opacity="0.64" stroke-linecap="round" transform="translate(832.8877400527053 525.72074706433) rotate(0 71.83067494749741 77.4178703521878)"><path d="M1.88 1.4 L144.54 -0.97 L141.81 154.82 L-0.9 156.38" stroke="none" stroke-width="0" fill="#fa5252"></path><path d="M0 0 C34.89 1.92, 68.43 -0.05, 143.66 0 M0 0 C42.22 -0.32, 84.9 -0.25, 143.66 0 M143.66 0 C143.97 30.23, 145.35 64.38, 143.66 154.84 M143.66 0 C143.61 52.31, 145 103.13, 143.66 154.84 M143.66 154.84 C93.1 157.04, 43.46 157.97, 0 154.84 M143.66 154.84 C89.68 154.55, 38.03 153.47, 0 154.84 M0 154.84 C-0.92 116.75, -1.96 77, 0 0 M0 154.84 C1.02 104.87, 0.13 55.77, 0 0" stroke="#000000" stroke-width="1" fill="none"></path></g></g><g clip-path="url(#gnM5-5ycZO9aeW1gxfxWL)"><g stroke-opacity="0.64" fill-opacity="0.64" transform="translate(838.1014640114333 567.9486763473416) rotate(0 66.61695098876953 35.18994106917626)"><text x="66.61695098876953" y="0" font-family="Virgil, Segoe UI Emoji" font-size="28.15195285534102px" fill="#1e1e1e" text-anchor="middle" style="white-space: pre;" direction="ltr" dominant-baseline="text-before-edge">In-memory</text><text x="66.61695098876953" y="35.18994106917627" font-family="Virgil, Segoe UI Emoji" font-size="28.15195285534102px" fill="#1e1e1e" text-anchor="middle" style="white-space: pre;" direction="ltr" dominant-baseline="text-before-edge">database</text></g></g><g clip-path="url(#gnM5-5ycZO9aeW1gxfxWL)"><g stroke-opacity="0.8" fill-opacity="0.8" stroke-linecap="round" transform="translate(253.53516127309263 150.49139393419756) rotate(0 56.86480210581357 54.30859385877119)"><path d="M-0.59 1.11 L113.6 1.67 L113.64 108.29 L-0.1 109.98" stroke="none" stroke-width="0" fill="#a5d8ff"></path><path d="M0 0 C38.12 0.16, 78.15 0.98, 113.73 0 M0 0 C37.02 -1.13, 74.98 -0.35, 113.73 0 M113.73 0 C115.28 37.55, 116.39 73.66, 113.73 108.62 M113.73 0 C113.33 41.43, 112.59 83.98, 113.73 108.62 M113.73 108.62 C86.8 109.25, 55.73 106.35, 0 108.62 M113.73 108.62 C85.91 109.03, 59.81 109.03, 0 108.62 M0 108.62 C2.36 65.13, 2.47 21.04, 0 0 M0 108.62 C-0.1 65.79, 0.66 23.01, 0 0" stroke="#000000" stroke-width="1" fill="none"></path></g></g><g clip-path="url(#gnM5-5ycZO9aeW1gxfxWL)"><g stroke-opacity="0.8" fill-opacity="0.8" transform="translate(267.2527160644129 179.7964771927971) rotate(0 43.147247314453125 32.9864444755039)"><text x="43.147247314453125" y="0" font-family="Virgil, Segoe UI Emoji" font-size="18.618047516930353px" fill="#000000" text-anchor="middle" style="white-space: pre;" direction="ltr" dominant-baseline="text-before-edge">gRPC</text><text x="43.147247314453125" y="21.99096298366927" font-family="Virgil, Segoe UI Emoji" font-size="18.618047516930353px" fill="#000000" text-anchor="middle" style="white-space: pre;" direction="ltr" dominant-baseline="text-before-edge">Streaming</text><text x="43.147247314453125" y="43.98192596733854" font-family="Virgil, Segoe UI Emoji" font-size="18.618047516930353px" fill="#000000" text-anchor="middle" style="white-space: pre;" direction="ltr" dominant-baseline="text-before-edge">API</text></g></g><g clip-path="url(#gnM5-5ycZO9aeW1gxfxWL)"><g stroke-linecap="round"><g stroke-opacity="0.8" fill-opacity="0.8" transform="translate(367.6100980311505 260.4952943035738) rotate(0 26.789865347755722 41.10471179994181)"><path d="M0 0 C8.93 13.7, 44.65 68.51, 53.58 82.21 M0 0 C8.93 13.7, 44.65 68.51, 53.58 82.21" stroke="#000000" stroke-width="1" fill="none"></path></g></g><mask></mask></g><g clip-path="url(#gnM5-5ycZO9aeW1gxfxWL)"><g stroke-opacity="0.64" fill-opacity="0.64" stroke-linecap="round" transform="translate(534.4002075195312 533.5999755859375) rotate(0 56 42.5)"><path d="M3.19 8.07 C3.19 8.07, 3.19 8.07, 3.19 8.07 M3.19 8.07 C3.19 8.07, 3.19 8.07, 3.19 8.07 M0.96 16.73 C3.73 13.77, 6.14 11.49, 10.8 5.41 M0.96 16.73 C3.13 14.54, 5.86 11.4, 10.8 5.41 M0.7 23.13 C5.46 18.61, 9.97 11.93, 17.75 3.51 M0.7 23.13 C4.77 17.88, 10.07 12.93, 17.75 3.51 M1.09 28.77 C5.46 23.08, 10.43 17.02, 24.05 2.36 M1.09 28.77 C5.01 23.02, 10.3 18.14, 24.05 2.36 M0.83 35.17 C10.43 23.69, 22.51 13, 29.04 2.72 M0.83 35.17 C7.1 27.97, 14.46 19.17, 29.04 2.72 M1.22 40.81 C15.04 26.81, 26.72 9.25, 34.68 2.32 M1.22 40.81 C11.82 27.36, 23.69 14.93, 34.68 2.32 M0.96 47.21 C12.58 34.35, 27.09 18.15, 39.67 2.68 M0.96 47.21 C15.7 31.13, 32.33 12.25, 39.67 2.68 M0.7 53.61 C16.98 35.03, 33.01 17.7, 45.31 2.29 M0.7 53.61 C9.44 42.43, 20.81 29.69, 45.31 2.29 M1.1 59.25 C20.24 36.69, 37.2 18.5, 50.3 2.65 M1.1 59.25 C13.29 45.8, 24.38 33.77, 50.3 2.65 M0.83 65.65 C21.24 42.16, 40.88 17.07, 55.94 2.26 M0.83 65.65 C22.2 43.5, 41.12 20.24, 55.94 2.26 M1.89 70.54 C17.74 54.04, 29.67 38.32, 60.93 2.62 M1.89 70.54 C14.74 53.39, 30.68 37.42, 60.93 2.62 M4.25 73.92 C24.27 47.98, 47.73 26.73, 66.57 2.22 M4.25 73.92 C24.2 49.78, 45.43 26.43, 66.57 2.22 M5.95 78.05 C18.92 63.49, 32.96 45.13, 71.56 2.58 M5.95 78.05 C18.91 63.59, 32.53 46.43, 71.56 2.58 M7.66 82.19 C31.3 58.27, 50.92 30.75, 77.2 2.19 M7.66 82.19 C33.65 54.32, 58.8 24.92, 77.2 2.19 M11.34 84.06 C29.4 61.98, 52.49 38.92, 82.19 2.55 M11.34 84.06 C30.92 61.9, 50.23 39.97, 82.19 2.55 M15.01 85.92 C40.41 58.31, 65.5 28.45, 87.83 2.15 M15.01 85.92 C29.77 69.39, 45.62 51.94, 87.83 2.15 M19.34 87.04 C38.19 65.91, 56.97 41.81, 93.48 1.76 M19.34 87.04 C39.12 64.26, 58.98 41.2, 93.48 1.76 M24.33 87.4 C43.1 64.99, 63.27 40.96, 97.81 2.87 M24.33 87.4 C41.86 68.01, 60.3 45.59, 97.81 2.87 M29.32 87.76 C42.97 68.12, 60.45 52.72, 102.8 3.23 M29.32 87.76 C45.31 68.42, 62.18 50.72, 102.8 3.23 M34.96 87.37 C59.71 59.13, 86.14 28.35, 105.81 5.86 M34.96 87.37 C64.08 55.18, 91.18 22.02, 105.81 5.86 M39.95 87.73 C57.94 68.8, 71.62 51.62, 109.49 7.73 M39.95 87.73 C67.44 57.02, 94.17 23.97, 109.49 7.73 M45.59 87.33 C63.77 69.39, 78.86 50.83, 111.2 11.86 M45.59 87.33 C71.86 57.05, 96.99 27.26, 111.2 11.86 M50.58 87.69 C70.89 67.91, 88.62 47.81, 111.59 17.5 M50.58 87.69 C66.63 67.97, 83 49.99, 111.59 17.5 M56.22 87.3 C76.68 64.88, 97.57 41.92, 112.64 22.39 M56.22 87.3 C74.46 67.25, 92.63 44.78, 112.64 22.39 M61.21 87.66 C78.78 64.69, 100.7 43.74, 113.04 28.03 M61.21 87.66 C71.89 75.03, 82.83 63.75, 113.04 28.03 M66.85 87.26 C83.02 68.26, 102.04 47.59, 112.77 34.43 M66.85 87.26 C80.53 71.65, 93.9 56.47, 112.77 34.43 M71.84 87.62 C85.68 70.02, 100.42 54.04, 112.51 40.83 M71.84 87.62 C85.14 72.85, 97.05 56.27, 112.51 40.83 M77.48 87.23 C84.57 78.71, 95.74 67.92, 112.91 46.47 M77.48 87.23 C86.96 74.67, 99.04 63.63, 112.91 46.47 M82.47 87.59 C89.54 80.45, 96.29 70.98, 112.65 52.87 M82.47 87.59 C90.75 80.03, 96.38 70.7, 112.65 52.87 M88.11 87.19 C95.09 80.66, 100.65 72.96, 112.38 59.27 M88.11 87.19 C94.35 80.08, 99.28 74.64, 112.38 59.27 M93.1 87.55 C98.45 82.18, 105.97 73.77, 112.78 64.91 M93.1 87.55 C99.43 80.81, 106.41 72.69, 112.78 64.91 M100.71 84.89 C103.67 83.28, 106.29 79.78, 113.17 70.55 M100.71 84.89 C105.02 79.85, 107.71 76.29, 113.17 70.55 M5.09 79.5 C5.09 79.5, 5.09 79.5, 5.09 79.5 M5.09 79.5 C5.09 79.5, 5.09 79.5, 5.09 79.5 M13.76 81.73 C9.5 80.22, 7.67 76.02, 1.68 71.23 M13.76 81.73 C10.12 78.16, 6.9 75.59, 1.68 71.23 M22.42 83.96 C16.74 78.03, 10.57 74.04, 2.04 66.24 M22.42 83.96 C16.01 78.08, 9.22 72.11, 2.04 66.24 M28.06 83.56 C18.35 76.17, 13.17 70.65, 2.4 61.26 M28.06 83.56 C18.61 75.26, 8.18 66.95, 2.4 61.26 M34.46 83.82 C22.79 71.81, 8.4 63.52, 2.01 55.61 M34.46 83.82 C22.35 73.77, 8.77 62.05, 2.01 55.61 M40.86 84.09 C28.58 74.09, 16.32 61.17, 2.37 50.63 M40.86 84.09 C28.66 73.83, 14.67 62.82, 2.37 50.63 M46.5 83.69 C39.23 75.07, 29.13 70.01, 1.97 44.98 M46.5 83.69 C37.68 74.63, 27.45 66.63, 1.97 44.98 M52.9 83.95 C39.23 72.25, 27.24 61.19, 2.33 40 M52.9 83.95 C42.35 74.06, 30.76 63.59, 2.33 40 M58.54 83.56 C35.92 64.3, 16.37 45.72, 1.94 34.35 M58.54 83.56 C39.11 67.03, 19.58 49.67, 1.94 34.35 M64.94 83.82 C50.95 73.54, 40.29 62.84, 2.3 29.37 M64.94 83.82 C41.93 63.87, 18.64 44.45, 2.3 29.37 M71.34 84.08 C54.38 69.68, 37.89 55.03, 2.66 24.38 M71.34 84.08 C45.64 63.97, 20.81 41.29, 2.66 24.38 M76.98 83.69 C52.11 60.39, 24.76 41.09, 2.26 18.74 M76.98 83.69 C60.66 71.03, 45.44 56.89, 2.26 18.74 M83.38 83.95 C65.74 67.4, 44.36 51.18, 2.62 13.75 M83.38 83.95 C60.05 63.83, 37.79 44.9, 2.62 13.75 M89.02 83.55 C69.27 68.55, 50.76 50.07, 3.74 9.42 M89.02 83.55 C68.79 64.95, 47.96 48.06, 3.74 9.42 M93.15 81.85 C58 51.14, 21.83 23.34, 5.61 5.74 M93.15 81.85 C74.69 64.2, 53.05 47.52, 5.61 5.74 M100.31 82.76 C73.03 56.68, 42.92 32.81, 8.23 2.72 M100.31 82.76 C70.96 57.67, 43.31 33.26, 8.23 2.72 M104.44 81.06 C75.2 52.67, 41.74 28.64, 13.12 1.67 M104.44 81.06 C78.53 57.16, 50.72 35.36, 13.12 1.67 M107.82 78.69 C74.07 48.7, 38.91 16.95, 18.01 0.62 M107.82 78.69 C81.77 54.07, 53.82 32.51, 18.01 0.62 M109.69 75.02 C86.63 52.42, 60.19 32.99, 22.14 -1.08 M109.69 75.02 C85.98 55.95, 64.87 35.36, 22.14 -1.08 M110.8 70.69 C91.39 54.36, 76.22 41.43, 28.54 -0.82 M110.8 70.69 C90.21 53.61, 70.07 35.46, 28.54 -0.82 M112.67 67.01 C84.79 42.22, 54.95 17.7, 34.18 -1.22 M112.67 67.01 C86.32 44.44, 60.81 21.2, 34.18 -1.22 M113.03 62.03 C99.29 49.41, 82.63 36.01, 40.58 -0.96 M113.03 62.03 C97.57 48.35, 81.72 34.61, 40.58 -0.96 M113.39 57.04 C100.34 45.8, 86.64 32.74, 46.22 -1.35 M113.39 57.04 C98.38 44.77, 84.44 31.58, 46.22 -1.35 M113 51.4 C89.66 30.63, 66.12 10.38, 52.62 -1.09 M113 51.4 C97.34 38.6, 82.41 24.58, 52.62 -1.09 M113.36 46.41 C97.04 33.58, 82.42 19.24, 59.02 -0.83 M113.36 46.41 C94.63 28.77, 74.23 12.29, 59.02 -0.83 M112.96 40.77 C99.16 31.41, 88.8 18.77, 64.66 -1.22 M112.96 40.77 C93.92 23.15, 73.94 6.83, 64.66 -1.22 M113.32 35.78 C97.88 21.62, 80.95 10.8, 71.06 -0.96 M113.32 35.78 C98.34 23.16, 83.31 10.9, 71.06 -0.96 M112.93 30.14 C105.11 20.69, 96.88 16.17, 76.7 -1.35 M112.93 30.14 C102.66 20.67, 91.84 11.85, 76.7 -1.35 M113.29 25.15 C101.99 18.27, 96.29 8.62, 83.1 -1.09 M113.29 25.15 C101.4 15.21, 90.2 4.22, 83.1 -1.09 M112.89 19.51 C106.31 14.39, 96.52 4.4, 89.5 -0.83 M112.89 19.51 C104.3 11.84, 96.68 5.91, 89.5 -0.83 M112.5 13.86 C108.64 10.88, 102.85 8.52, 92.88 -3.19 M112.5 13.86 C106.78 9.27, 100.3 3.2, 92.88 -3.19" stroke="#ffec99" stroke-width="0.5" fill="none"></path><path d="M21.25 0 C38.25 -0.1, 57.35 -1.19, 90.75 0 M90.75 0 C103.37 -1.7, 111.58 7.51, 112 21.25 M112 21.25 C111.05 38.42, 112 51.86, 112 63.75 M112 63.75 C111.63 76.85, 105.39 84.75, 90.75 85 M90.75 85 C64.87 84.69, 39.18 84.94, 21.25 85 M21.25 85 C6.05 83.62, -1.54 76.39, 0 63.75 M0 63.75 C0.99 51.21, 0.4 40.03, 0 21.25 M0 21.25 C-1.4 8.29, 8.52 -0.61, 21.25 0" stroke="#1e1e1e" stroke-width="1.5" fill="none" stroke-dasharray="8 9"></path></g></g><g clip-path="url(#gnM5-5ycZO9aeW1gxfxWL)"><g stroke-opacity="0.64" fill-opacity="0.64" transform="translate(539.8802642822266 551.0999755859375) rotate(0 50.51994323730469 25)"><text x="50.51994323730469" y="0" font-family="Virgil, Segoe UI Emoji" font-size="20px" fill="#1e1e1e" text-anchor="middle" style="white-space: pre;" direction="ltr" dominant-baseline="text-before-edge">Port </text><text x="50.51994323730469" y="25" font-family="Virgil, Segoe UI Emoji" font-size="20px" fill="#1e1e1e" text-anchor="middle" style="white-space: pre;" direction="ltr" dominant-baseline="text-before-edge">Repository</text></g></g><g clip-path="url(#gnM5-5ycZO9aeW1gxfxWL)"><g stroke-linecap="round"><g stroke-opacity="0.64" fill-opacity="0.64" transform="translate(644.7999877929688 580.7999877929688) rotate(0 16.4000244140625 -0.399993896484375)"><path d="M0.46 -0.43 C5.89 -0.59, 27.18 -0.48, 32.61 -0.47" stroke="#1e1e1e" stroke-width="2.5" fill="none" stroke-dasharray="8 10"></path></g></g><mask></mask></g><g clip-path="url(#gnM5-5ycZO9aeW1gxfxWL)"><g stroke-opacity="0.64" fill-opacity="0.64" transform="translate(181.60003662109375 417.4000244140625) rotate(0 79.35993194580078 12.5)"><text x="0" y="0" font-family="Virgil, Segoe UI Emoji" font-size="20px" fill="#1e1e1e" text-anchor="start" style="white-space: pre;" direction="ltr" dominant-baseline="text-before-edge">Primary Adapter</text></g></g><g clip-path="url(#gnM5-5ycZO9aeW1gxfxWL)"><g stroke-opacity="0.64" fill-opacity="0.64" transform="translate(260.40008544921875 259.4000244140625) rotate(0 79.35993194580078 12.5)"><text x="0" y="0" font-family="Virgil, Segoe UI Emoji" font-size="20px" fill="#1e1e1e" text-anchor="start" style="white-space: pre;" direction="ltr" dominant-baseline="text-before-edge">Primary Adapter</text></g></g></svg>